<svg width="1200" height="630" viewBox="0 0 1200 630" xmlns="http://www.w3.org/2000/svg" role="img" aria-label="The Quant (ℚ) social card">
  <defs>
    <linearGradient id="qcbg" x1="0" y1="0" x2="1" y2="1">
      <stop offset="0" stop-color="#0F3328"/>
      <stop offset="1" stop-color="#1B6B42"/>
    </linearGradient>
  </defs>
  <rect width="1200" height="630" fill="url(#qcbg)"/>
  <g transform="translate(64,52) scale(0.30)">
    <rect width="512" height="512" rx="116" fill="#0A241C"/>
  <path d="M256.8174386920981 428.75204359673023C278.6158038147139 428.75204359673023 299.3242506811989 425.48228882833786 317.85286103542234 418.94277929155317C335.291553133515 438.01634877384197 354.9100817438692 456.0 389.24250681198913 456.0C403.9564032697548 456.0 419.21525885558583 453.275204359673 434.47411444141693 451.09536784741147L431.20435967302456 427.66212534059946C417.58038147138967 429.84196185286106 403.4114441416894 432.0217983651226 389.24250681198913 432.0217983651226C370.7138964577657 432.0217983651226 357.08991825613083 421.1226158038147 344.01089918256133 408.0435967302452C401.2316076294278 376.9809264305177 436.6539509536785 314.8555858310627 436.6539509536785 241.28610354223432C436.6539509536785 135.56403269754765 364.71934604904635 55.99999999999994 258.99727520435965 55.99999999999994C150.00544959128064 55.99999999999994 75.34604904632153 135.56403269754765 75.34604904632153 241.28610354223432C75.34604904632153 344.8283378746594 150.00544959128064 428.75204359673023 256.8174386920981 428.75204359673023ZM189.2425068119891 391.149863760218C181.06811989100817 387.3351498637602 172.89373297002726 382.43051771117166 165.80926430517712 377.5258855585831V104.50136239782012C190.3324250681199 88.69754768392369 220.85013623978202 79.43324250681195 256.8174386920981 79.43324250681195C291.6948228882834 79.43324250681195 322.21253405994554 89.24250681198907 346.19073569482293 106.68119891008172V378.0708446866485C340.19618528610357 382.43051771117166 333.6566757493188 386.2452316076294 326.5722070844687 389.5149863760218C309.13351498637604 371.53133514986376 289.51498637602185 354.6376021798365 258.99727520435965 354.6376021798365C229.56948228882834 354.6376021798365 207.22615803814713 369.35149863760216 189.2425068119891 391.149863760218ZM142.37602179836512 356.27247956403266C115.12806539509536 326.29972752043597 100.41416893732969 285.4277929155313 100.41416893732969 241.28610354223432C100.41416893732969 193.32970027247956 115.12806539509536 153.0027247956403 142.37602179836512 124.66485013623975ZM369.6239782016349 127.38964577656674C396.87193460490465 156.81743869209805 411.5858310626703 197.6893732970027 411.5858310626703 241.28610354223432C411.5858310626703 285.4277929155313 396.87193460490465 326.84468664850135 369.6239782016349 356.8174386920981ZM256.8174386920981 405.3188010899183C241.55858310626704 405.3188010899183 227.38964577656677 403.68392370572207 213.76566757493188 399.8692098092643C225.2098092643052 387.3351498637602 238.28882833787466 378.6158038147139 257.3623978201635 378.6158038147139C275.3460490463215 378.6158038147139 287.88010899182564 387.88010899182564 299.8692098092643 399.8692098092643C286.79019073569486 403.1389645776567 272.07629427792915 405.3188010899183 256.8174386920981 405.3188010899183Z" fill="#FFFFFF" fill-rule="evenodd"/>
  </g>
  <text x="232" y="142" font-family="Arial, Helvetica, sans-serif" font-size="92" font-weight="700" letter-spacing="4" fill="#FFFFFF">Quant</text>
  <text x="236" y="190" font-family="Arial, Helvetica, sans-serif" font-size="26" font-weight="400" letter-spacing="2" fill="#9DB8A8">Computational Energy Efficiency &#183; &#8474;</text>
  <text x="64" y="372" font-family="Arial, Helvetica, sans-serif" font-size="56" font-weight="700" fill="#FFFFFF">Useful information per joule,</text>
  <text x="64" y="442" font-family="Arial, Helvetica, sans-serif" font-size="56" font-weight="700" fill="#FFFFFF">benchmarked to the Landauer limit.</text>
  <rect x="66" y="474" width="132" height="7" rx="3.5" fill="#43D58C"/>
  <text x="64" y="566" font-family="Arial, Helvetica, sans-serif" font-size="27" font-weight="700" letter-spacing="1" fill="#8EEDC0">Request for Comments &#183; v0.1.0 &#183; June 2026</text>
  <text x="64" y="600" font-family="Arial, Helvetica, sans-serif" font-size="25" font-weight="400" letter-spacing="1" fill="#9DB8A8">github.com/ducp-protocol/ducp-spec/tree/main/quant</text>
</svg>
